<svg xmlns="http://www.w3.org/2000/svg" version="1.1" xmlns:xlink="http://www.w3.org/1999/xlink" xmlns:svgjs="http://svgjs.com/svgjs" width="1000" height="500" preserveAspectRatio="none" viewBox="0 0 1000 500">
    <g mask="url(&quot;#SvgjsMask1022&quot;)" fill="none">
        <rect width="1000" height="500" x="0" y="0" fill="#0e2a47"></rect>
        <path d="M-55.55 334.07L-55.55 334.07" stroke="#132e65" stroke-width="1.5"></path>
        <path d="M-55.55 334.07L34 342.12" stroke="#132e65" stroke-width="1.5"></path>
        <path d="M-55.55 334.07L-69.82 457.78" stroke="#132e65" stroke-width="1.5"></path>
        <path d="M-55.55 334.07L35.41 542.42" stroke="#132e65" stroke-width="1.5"></path>
        <path d="M-55.55 334.07L194.86 292.82" stroke="#132e65" stroke-width="1.5"></path>
        <path d="M-55.55 334.07L-72.06 588.76" stroke="#132e65" stroke-width="1.5"></path>
        <path d="M-69.82 457.78L-69.82 457.78" stroke="#132e65" stroke-width="1.5"></path>
        <path d="M-69.82 457.78L-72.06 588.76" stroke="#132e65" stroke-width="1.5"></path>
        <path d="M-69.82 457.78L35.41 542.42" stroke="#132e65" stroke-width="1.5"></path>
        <path d="M-69.82 457.78L34 342.12" stroke="#132e65" stroke-width="1.5"></path>
        <path d="M-69.82 457.78L200.94 430.14" stroke="#132e65" stroke-width="1.5"></path>
        <path d="M-69.82 457.78L194.86 292.82" stroke="#132e65" stroke-width="1.5"></path>
        <path d="M-72.06 588.76L-72.06 588.76" stroke="#132e65" stroke-width="1.5"></path>
        <path d="M-72.06 588.76L35.41 542.42" stroke="#132e65" stroke-width="1.5"></path>
        <path d="M34 342.12L34 342.12" stroke="#132e65" stroke-width="1.5"></path>
        <path d="M34 342.12L194.86 292.82" stroke="#132e65" stroke-width="1.5"></path>
        <path d="M34 342.12L200.94 430.14" stroke="#132e65" stroke-width="1.5"></path>
        <path d="M34 342.12L35.41 542.42" stroke="#132e65" stroke-width="1.5"></path>
        <path d="M35.41 542.42L35.41 542.42" stroke="#132e65" stroke-width="1.5"></path>
        <path d="M35.41 542.42L200.94 430.14" stroke="#132e65" stroke-width="1.5"></path>
        <path d="M194.86 292.82L194.86 292.82" stroke="#132e65" stroke-width="1.5"></path>
        <path d="M194.86 292.82L283.55 313.85" stroke="#132e65" stroke-width="1.5"></path>
        <path d="M194.86 292.82L200.94 430.14" stroke="#132e65" stroke-width="1.5"></path>
        <path d="M194.86 292.82L422.04 320.77" stroke="#132e65" stroke-width="1.5"></path>
        <path d="M194.86 292.82L300.22 541.95" stroke="#132e65" stroke-width="1.5"></path>
        <path d="M200.94 430.14L200.94 430.14" stroke="#132e65" stroke-width="1.5"></path>
        <path d="M200.94 430.14L283.55 313.85" stroke="#132e65" stroke-width="1.5"></path>
        <path d="M200.94 430.14L300.22 541.95" stroke="#132e65" stroke-width="1.5"></path>
        <path d="M283.55 313.85L283.55 313.85" stroke="#132e65" stroke-width="1.5"></path>
        <path d="M283.55 313.85L422.04 320.77" stroke="#132e65" stroke-width="1.5"></path>
        <path d="M283.55 313.85L300.22 541.95" stroke="#132e65" stroke-width="1.5"></path>
        <path d="M300.22 541.95L300.22 541.95" stroke="#132e65" stroke-width="1.5"></path>
        <path d="M300.22 541.95L415.63 556" stroke="#132e65" stroke-width="1.5"></path>
        <path d="M300.22 541.95L463.64 464.44" stroke="#132e65" stroke-width="1.5"></path>
        <path d="M300.22 541.95L532.58 554.36" stroke="#132e65" stroke-width="1.5"></path>
        <path d="M300.22 541.95L422.04 320.77" stroke="#132e65" stroke-width="1.5"></path>
        <path d="M422.04 320.77L422.04 320.77" stroke="#132e65" stroke-width="1.5"></path>
        <path d="M422.04 320.77L463.64 464.44" stroke="#132e65" stroke-width="1.5"></path>
        <path d="M422.04 320.77L589.59 323.19" stroke="#132e65" stroke-width="1.5"></path>
        <path d="M463.64 464.44L463.64 464.44" stroke="#132e65" stroke-width="1.5"></path>
        <path d="M463.64 464.44L415.63 556" stroke="#132e65" stroke-width="1.5"></path>
        <path d="M463.64 464.44L532.58 554.36" stroke="#132e65" stroke-width="1.5"></path>
        <path d="M463.64 464.44L588.03 448.8" stroke="#132e65" stroke-width="1.5"></path>
        <path d="M463.64 464.44L589.59 323.19" stroke="#132e65" stroke-width="1.5"></path>
        <path d="M415.63 556L415.63 556" stroke="#132e65" stroke-width="1.5"></path>
        <path d="M415.63 556L532.58 554.36" stroke="#132e65" stroke-width="1.5"></path>
        <path d="M415.63 556L588.03 448.8" stroke="#132e65" stroke-width="1.5"></path>
        <path d="M415.63 556L422.04 320.77" stroke="#132e65" stroke-width="1.5"></path>
        <path d="M580.54 202.43L580.54 202.43" stroke="#132e65" stroke-width="1.5"></path>
        <path d="M580.54 202.43L589.59 323.19" stroke="#132e65" stroke-width="1.5"></path>
        <path d="M580.54 202.43L715.02 175.46" stroke="#132e65" stroke-width="1.5"></path>
        <path d="M580.54 202.43L669.34 76.26" stroke="#132e65" stroke-width="1.5"></path>
        <path d="M589.59 323.19L589.59 323.19" stroke="#132e65" stroke-width="1.5"></path>
        <path d="M589.59 323.19L694.67 327.59" stroke="#132e65" stroke-width="1.5"></path>
        <path d="M589.59 323.19L588.03 448.8" stroke="#132e65" stroke-width="1.5"></path>
        <path d="M589.59 323.19L656.97 457.3" stroke="#132e65" stroke-width="1.5"></path>
        <path d="M588.03 448.8L588.03 448.8" stroke="#132e65" stroke-width="1.5"></path>
        <path d="M588.03 448.8L656.97 457.3" stroke="#132e65" stroke-width="1.5"></path>
        <path d="M588.03 448.8L532.58 554.36" stroke="#132e65" stroke-width="1.5"></path>
        <path d="M588.03 448.8L679.58 541.14" stroke="#132e65" stroke-width="1.5"></path>
        <path d="M532.58 554.36L532.58 554.36" stroke="#132e65" stroke-width="1.5"></path>
        <path d="M532.58 554.36L679.58 541.14" stroke="#132e65" stroke-width="1.5"></path>
        <path d="M707.7 -86.62L707.7 -86.62" stroke="#132e65" stroke-width="1.5"></path>
        <path d="M707.7 -86.62L827.11 -34.06" stroke="#132e65" stroke-width="1.5"></path>
        <path d="M707.7 -86.62L669.34 76.26" stroke="#132e65" stroke-width="1.5"></path>
        <path d="M669.34 76.26L669.34 76.26" stroke="#132e65" stroke-width="1.5"></path>
        <path d="M669.34 76.26L715.02 175.46" stroke="#132e65" stroke-width="1.5"></path>
        <path d="M669.34 76.26L821.84 72.98" stroke="#132e65" stroke-width="1.5"></path>
        <path d="M669.34 76.26L801.7 161.06" stroke="#132e65" stroke-width="1.5"></path>
        <path d="M715.02 175.46L715.02 175.46" stroke="#132e65" stroke-width="1.5"></path>
        <path d="M715.02 175.46L801.7 161.06" stroke="#132e65" stroke-width="1.5"></path>
        <path d="M694.67 327.59L694.67 327.59" stroke="#132e65" stroke-width="1.5"></path>
        <path d="M694.67 327.59L656.97 457.3" stroke="#132e65" stroke-width="1.5"></path>
        <path d="M694.67 327.59L841.53 322.53" stroke="#132e65" stroke-width="1.5"></path>
        <path d="M656.97 457.3L656.97 457.3" stroke="#132e65" stroke-width="1.5"></path>
        <path d="M656.97 457.3L679.58 541.14" stroke="#132e65" stroke-width="1.5"></path>
        <path d="M679.58 541.14L679.58 541.14" stroke="#132e65" stroke-width="1.5"></path>
        <path d="M679.58 541.14L798.35 532.97" stroke="#132e65" stroke-width="1.5"></path>
        <path d="M679.58 541.14L823.16 412.13" stroke="#132e65" stroke-width="1.5"></path>
        <path d="M827.11 -34.06L827.11 -34.06" stroke="#132e65" stroke-width="1.5"></path>
        <path d="M827.11 -34.06L821.84 72.98" stroke="#132e65" stroke-width="1.5"></path>
        <path d="M827.11 -34.06L958.4 -64.81" stroke="#132e65" stroke-width="1.5"></path>
        <path d="M821.84 72.98L821.84 72.98" stroke="#132e65" stroke-width="1.5"></path>
        <path d="M821.84 72.98L801.7 161.06" stroke="#132e65" stroke-width="1.5"></path>
        <path d="M801.7 161.06L801.7 161.06" stroke="#132e65" stroke-width="1.5"></path>
        <path d="M841.53 322.53L841.53 322.53" stroke="#132e65" stroke-width="1.5"></path>
        <path d="M841.53 322.53L930.94 314.84" stroke="#132e65" stroke-width="1.5"></path>
        <path d="M841.53 322.53L823.16 412.13" stroke="#132e65" stroke-width="1.5"></path>
        <path d="M823.16 412.13L823.16 412.13" stroke="#132e65" stroke-width="1.5"></path>
        <path d="M823.16 412.13L798.35 532.97" stroke="#132e65" stroke-width="1.5"></path>
        <path d="M823.16 412.13L958.43 447.12" stroke="#132e65" stroke-width="1.5"></path>
        <path d="M823.16 412.13L930.94 314.84" stroke="#132e65" stroke-width="1.5"></path>
        <path d="M798.35 532.97L798.35 532.97" stroke="#132e65" stroke-width="1.5"></path>
        <path d="M798.35 532.97L656.97 457.3" stroke="#132e65" stroke-width="1.5"></path>
        <path d="M958.4 -64.81L958.4 -64.81" stroke="#132e65" stroke-width="1.5"></path>
        <path d="M958.4 -64.81L1080.18 -55" stroke="#132e65" stroke-width="1.5"></path>
        <path d="M958.4 -64.81L948.97 69.14" stroke="#132e65" stroke-width="1.5"></path>
        <path d="M958.4 -64.81L1041.09 79.71" stroke="#132e65" stroke-width="1.5"></path>
        <path d="M958.4 -64.81L821.84 72.98" stroke="#132e65" stroke-width="1.5"></path>
        <path d="M958.4 -64.81L942.11 181.6" stroke="#132e65" stroke-width="1.5"></path>
        <path d="M948.97 69.14L948.97 69.14" stroke="#132e65" stroke-width="1.5"></path>
        <path d="M948.97 69.14L1041.09 79.71" stroke="#132e65" stroke-width="1.5"></path>
        <path d="M948.97 69.14L942.11 181.6" stroke="#132e65" stroke-width="1.5"></path>
        <path d="M948.97 69.14L821.84 72.98" stroke="#132e65" stroke-width="1.5"></path>
        <path d="M948.97 69.14L827.11 -34.06" stroke="#132e65" stroke-width="1.5"></path>
        <path d="M942.11 181.6L942.11 181.6" stroke="#132e65" stroke-width="1.5"></path>
        <path d="M942.11 181.6L930.94 314.84" stroke="#132e65" stroke-width="1.5"></path>
        <path d="M942.11 181.6L1082.23 164.38" stroke="#132e65" stroke-width="1.5"></path>
        <path d="M930.94 314.84L930.94 314.84" stroke="#132e65" stroke-width="1.5"></path>
        <path d="M930.94 314.84L1042.04 294.25" stroke="#132e65" stroke-width="1.5"></path>
        <path d="M958.43 447.12L958.43 447.12" stroke="#132e65" stroke-width="1.5"></path>
        <path d="M958.43 447.12L1072.92 413.52" stroke="#132e65" stroke-width="1.5"></path>
        <path d="M958.43 447.12L930.94 314.84" stroke="#132e65" stroke-width="1.5"></path>
        <path d="M958.43 447.12L1059.43 575.64" stroke="#132e65" stroke-width="1.5"></path>
        <path d="M958.43 447.12L841.53 322.53" stroke="#132e65" stroke-width="1.5"></path>
        <path d="M1080.18 -55L1080.18 -55" stroke="#132e65" stroke-width="1.5"></path>
        <path d="M1080.18 -55L1041.09 79.71" stroke="#132e65" stroke-width="1.5"></path>
        <path d="M1080.18 -55L948.97 69.14" stroke="#132e65" stroke-width="1.5"></path>
        <path d="M1041.09 79.71L1041.09 79.71" stroke="#132e65" stroke-width="1.5"></path>
        <path d="M1041.09 79.71L1082.23 164.38" stroke="#132e65" stroke-width="1.5"></path>
        <path d="M1082.23 164.38L1082.23 164.38" stroke="#132e65" stroke-width="1.5"></path>
        <path d="M1082.23 164.38L1042.04 294.25" stroke="#132e65" stroke-width="1.5"></path>
        <path d="M1082.23 164.38L948.97 69.14" stroke="#132e65" stroke-width="1.5"></path>
        <path d="M1042.04 294.25L1042.04 294.25" stroke="#132e65" stroke-width="1.5"></path>
        <path d="M1042.04 294.25L1072.92 413.52" stroke="#132e65" stroke-width="1.5"></path>
        <path d="M1072.92 413.52L1072.92 413.52" stroke="#132e65" stroke-width="1.5"></path>
        <path d="M1059.43 575.64L1059.43 575.64" stroke="#132e65" stroke-width="1.5"></path>
        <path d="M1059.43 575.64L1072.92 413.52" stroke="#132e65" stroke-width="1.5"></path>
        <circle r="5" cx="-55.55" cy="334.07" fill="#132e65"></circle>
        <circle r="5" cx="-69.82" cy="457.78" fill="#132e65"></circle>
        <circle r="5" cx="-72.06" cy="588.76" fill="#132e65"></circle>
        <circle r="5" cx="34" cy="342.12" fill="#132e65"></circle>
        <circle r="5" cx="35.41" cy="542.42" fill="#132e65"></circle>
        <circle r="5" cx="194.86" cy="292.82" fill="#132e65"></circle>
        <circle r="5" cx="200.94" cy="430.14" fill="#132e65"></circle>
        <circle r="5" cx="283.55" cy="313.85" fill="#132e65"></circle>
        <circle r="5" cx="300.22" cy="541.95" fill="#132e65"></circle>
        <circle r="5" cx="422.04" cy="320.77" fill="#132e65"></circle>
        <circle r="5" cx="463.64" cy="464.44" fill="#132e65"></circle>
        <circle r="5" cx="415.63" cy="556" fill="#132e65"></circle>
        <circle r="5" cx="580.54" cy="202.43" fill="#132e65"></circle>
        <circle r="5" cx="589.59" cy="323.19" fill="#132e65"></circle>
        <circle r="5" cx="588.03" cy="448.8" fill="#132e65"></circle>
        <circle r="5" cx="532.58" cy="554.36" fill="#132e65"></circle>
        <circle r="5" cx="707.7" cy="-86.62" fill="#132e65"></circle>
        <circle r="5" cx="669.34" cy="76.26" fill="#132e65"></circle>
        <circle r="5" cx="715.02" cy="175.46" fill="#132e65"></circle>
        <circle r="5" cx="694.67" cy="327.59" fill="#132e65"></circle>
        <circle r="5" cx="656.97" cy="457.3" fill="#132e65"></circle>
        <circle r="5" cx="679.58" cy="541.14" fill="#132e65"></circle>
        <circle r="5" cx="827.11" cy="-34.06" fill="#132e65"></circle>
        <circle r="5" cx="821.84" cy="72.98" fill="#132e65"></circle>
        <circle r="5" cx="801.7" cy="161.06" fill="#132e65"></circle>
        <circle r="5" cx="841.53" cy="322.53" fill="#132e65"></circle>
        <circle r="5" cx="823.16" cy="412.13" fill="#132e65"></circle>
        <circle r="5" cx="798.35" cy="532.97" fill="#132e65"></circle>
        <circle r="5" cx="958.4" cy="-64.81" fill="#132e65"></circle>
        <circle r="5" cx="948.97" cy="69.14" fill="#132e65"></circle>
        <circle r="5" cx="942.11" cy="181.6" fill="#132e65"></circle>
        <circle r="5" cx="930.94" cy="314.84" fill="#132e65"></circle>
        <circle r="5" cx="958.43" cy="447.12" fill="#132e65"></circle>
        <circle r="5" cx="1080.18" cy="-55" fill="#132e65"></circle>
        <circle r="5" cx="1041.09" cy="79.71" fill="#132e65"></circle>
        <circle r="5" cx="1082.23" cy="164.38" fill="#132e65"></circle>
        <circle r="5" cx="1042.04" cy="294.25" fill="#132e65"></circle>
        <circle r="5" cx="1072.92" cy="413.52" fill="#132e65"></circle>
        <circle r="5" cx="1059.43" cy="575.64" fill="#132e65"></circle>
        <path d="M87.49 421.99L87.49 421.99" stroke="hsl(257.70000000000005, 37.9%, 29.6%)" stroke-width="1.5"></path>
        <path d="M87.49 421.99L182.49 439.42" stroke="hsl(257.70000000000005, 37.9%, 29.6%)" stroke-width="1.5"></path>
        <path d="M87.49 421.99L158.51 555.51" stroke="hsl(257.70000000000005, 37.9%, 29.6%)" stroke-width="1.5"></path>
        <path d="M87.49 421.99L-65.33 451.5" stroke="hsl(257.70000000000005, 37.9%, 29.6%)" stroke-width="1.5"></path>
        <path d="M87.49 421.99L49.52 581.45" stroke="hsl(257.70000000000005, 37.9%, 29.6%)" stroke-width="1.5"></path>
        <path d="M182.49 439.42L182.49 439.42" stroke="hsl(257.70000000000005, 37.9%, 29.6%)" stroke-width="1.5"></path>
        <path d="M182.49 439.42L158.51 555.51" stroke="hsl(257.70000000000005, 37.9%, 29.6%)" stroke-width="1.5"></path>
        <path d="M182.49 439.42L313.1 456.07" stroke="hsl(257.70000000000005, 37.9%, 29.6%)" stroke-width="1.5"></path>
        <path d="M182.49 439.42L338.19 541.48" stroke="hsl(257.70000000000005, 37.9%, 29.6%)" stroke-width="1.5"></path>
        <path d="M158.51 555.51L158.51 555.51" stroke="hsl(257.70000000000005, 37.9%, 29.6%)" stroke-width="1.5"></path>
        <path d="M158.51 555.51L49.52 581.45" stroke="hsl(257.70000000000005, 37.9%, 29.6%)" stroke-width="1.5"></path>
        <path d="M338.19 541.48L338.19 541.48" stroke="hsl(257.70000000000005, 37.9%, 29.6%)" stroke-width="1.5"></path>
        <path d="M338.19 541.48L313.1 456.07" stroke="hsl(257.70000000000005, 37.9%, 29.6%)" stroke-width="1.5"></path>
        <path d="M338.19 541.48L452.53 539.32" stroke="hsl(257.70000000000005, 37.9%, 29.6%)" stroke-width="1.5"></path>
        <path d="M338.19 541.48L416.31 457.55" stroke="hsl(257.70000000000005, 37.9%, 29.6%)" stroke-width="1.5"></path>
        <path d="M338.19 541.48L158.51 555.51" stroke="hsl(257.70000000000005, 37.9%, 29.6%)" stroke-width="1.5"></path>
        <path d="M338.19 541.48L542.3 547.72" stroke="hsl(257.70000000000005, 37.9%, 29.6%)" stroke-width="1.5"></path>
        <path d="M565.61 448.19L565.61 448.19" stroke="hsl(257.70000000000005, 37.9%, 29.6%)" stroke-width="1.5"></path>
        <path d="M565.61 448.19L542.3 547.72" stroke="hsl(257.70000000000005, 37.9%, 29.6%)" stroke-width="1.5"></path>
        <path d="M565.61 448.19L581.52 324.46" stroke="hsl(257.70000000000005, 37.9%, 29.6%)" stroke-width="1.5"></path>
        <path d="M565.61 448.19L452.53 539.32" stroke="hsl(257.70000000000005, 37.9%, 29.6%)" stroke-width="1.5"></path>
        <path d="M565.61 448.19L416.31 457.55" stroke="hsl(257.70000000000005, 37.9%, 29.6%)" stroke-width="1.5"></path>
        <path d="M699.9 194.12L699.9 194.12" stroke="hsl(257.70000000000005, 37.9%, 29.6%)" stroke-width="1.5"></path>
        <path d="M699.9 194.12L705 293.74" stroke="hsl(257.70000000000005, 37.9%, 29.6%)" stroke-width="1.5"></path>
        <path d="M699.9 194.12L818.89 208.52" stroke="hsl(257.70000000000005, 37.9%, 29.6%)" stroke-width="1.5"></path>
        <path d="M699.9 194.12L794.99 82.23" stroke="hsl(257.70000000000005, 37.9%, 29.6%)" stroke-width="1.5"></path>
        <path d="M699.9 194.12L802.39 330.81" stroke="hsl(257.70000000000005, 37.9%, 29.6%)" stroke-width="1.5"></path>
        <path d="M699.9 194.12L581.52 324.46" stroke="hsl(257.70000000000005, 37.9%, 29.6%)" stroke-width="1.5"></path>
        <path d="M699.9 194.12L715.26 436.67" stroke="hsl(257.70000000000005, 37.9%, 29.6%)" stroke-width="1.5"></path>
        <path d="M705 293.74L705 293.74" stroke="hsl(257.70000000000005, 37.9%, 29.6%)" stroke-width="1.5"></path>
        <path d="M705 293.74L802.39 330.81" stroke="hsl(257.70000000000005, 37.9%, 29.6%)" stroke-width="1.5"></path>
        <path d="M705 293.74L581.52 324.46" stroke="hsl(257.70000000000005, 37.9%, 29.6%)" stroke-width="1.5"></path>
        <path d="M705 293.74L818.89 208.52" stroke="hsl(257.70000000000005, 37.9%, 29.6%)" stroke-width="1.5"></path>
        <path d="M705 293.74L715.26 436.67" stroke="hsl(257.70000000000005, 37.9%, 29.6%)" stroke-width="1.5"></path>
        <path d="M705 293.74L565.61 448.19" stroke="hsl(257.70000000000005, 37.9%, 29.6%)" stroke-width="1.5"></path>
        <path d="M818.89 208.52L818.89 208.52" stroke="hsl(257.70000000000005, 37.9%, 29.6%)" stroke-width="1.5"></path>
        <path d="M818.89 208.52L802.39 330.81" stroke="hsl(257.70000000000005, 37.9%, 29.6%)" stroke-width="1.5"></path>
        <path d="M818.89 208.52L794.99 82.23" stroke="hsl(257.70000000000005, 37.9%, 29.6%)" stroke-width="1.5"></path>
        <path d="M960.51 156.32L960.51 156.32" stroke="hsl(257.70000000000005, 37.9%, 29.6%)" stroke-width="1.5"></path>
        <path d="M960.51 156.32L1048.25 185.09" stroke="hsl(257.70000000000005, 37.9%, 29.6%)" stroke-width="1.5"></path>
        <path d="M960.51 156.32L957.31 37.59" stroke="hsl(257.70000000000005, 37.9%, 29.6%)" stroke-width="1.5"></path>
        <path d="M960.51 156.32L818.89 208.52" stroke="hsl(257.70000000000005, 37.9%, 29.6%)" stroke-width="1.5"></path>
        <path d="M960.51 156.32L1070.15 49.88" stroke="hsl(257.70000000000005, 37.9%, 29.6%)" stroke-width="1.5"></path>
        <path d="M-65.33 451.5L-65.33 451.5" stroke="hsl(257.70000000000005, 37.9%, 29.6%)" stroke-width="1.5"></path>
        <path d="M-65.33 451.5L-63.33 543.59" stroke="hsl(257.70000000000005, 37.9%, 29.6%)" stroke-width="1.5"></path>
        <path d="M-63.33 543.59L-63.33 543.59" stroke="hsl(257.70000000000005, 37.9%, 29.6%)" stroke-width="1.5"></path>
        <path d="M-63.33 543.59L49.52 581.45" stroke="hsl(257.70000000000005, 37.9%, 29.6%)" stroke-width="1.5"></path>
        <path d="M49.52 581.45L49.52 581.45" stroke="hsl(257.70000000000005, 37.9%, 29.6%)" stroke-width="1.5"></path>
        <path d="M49.52 581.45L-65.33 451.5" stroke="hsl(257.70000000000005, 37.9%, 29.6%)" stroke-width="1.5"></path>
        <path d="M313.1 456.07L313.1 456.07" stroke="hsl(257.70000000000005, 37.9%, 29.6%)" stroke-width="1.5"></path>
        <path d="M313.1 456.07L416.31 457.55" stroke="hsl(257.70000000000005, 37.9%, 29.6%)" stroke-width="1.5"></path>
        <path d="M416.31 457.55L416.31 457.55" stroke="hsl(257.70000000000005, 37.9%, 29.6%)" stroke-width="1.5"></path>
        <path d="M416.31 457.55L452.53 539.32" stroke="hsl(257.70000000000005, 37.9%, 29.6%)" stroke-width="1.5"></path>
        <path d="M416.31 457.55L542.3 547.72" stroke="hsl(257.70000000000005, 37.9%, 29.6%)" stroke-width="1.5"></path>
        <path d="M416.31 457.55L581.52 324.46" stroke="hsl(257.70000000000005, 37.9%, 29.6%)" stroke-width="1.5"></path>
        <path d="M452.53 539.32L452.53 539.32" stroke="hsl(257.70000000000005, 37.9%, 29.6%)" stroke-width="1.5"></path>
        <path d="M452.53 539.32L542.3 547.72" stroke="hsl(257.70000000000005, 37.9%, 29.6%)" stroke-width="1.5"></path>
        <path d="M581.52 324.46L581.52 324.46" stroke="hsl(257.70000000000005, 37.9%, 29.6%)" stroke-width="1.5"></path>
        <path d="M581.52 324.46L715.26 436.67" stroke="hsl(257.70000000000005, 37.9%, 29.6%)" stroke-width="1.5"></path>
        <path d="M581.52 324.46L802.39 330.81" stroke="hsl(257.70000000000005, 37.9%, 29.6%)" stroke-width="1.5"></path>
        <path d="M542.3 547.72L542.3 547.72" stroke="hsl(257.70000000000005, 37.9%, 29.6%)" stroke-width="1.5"></path>
        <path d="M542.3 547.72L715.26 436.67" stroke="hsl(257.70000000000005, 37.9%, 29.6%)" stroke-width="1.5"></path>
        <path d="M542.3 547.72L581.52 324.46" stroke="hsl(257.70000000000005, 37.9%, 29.6%)" stroke-width="1.5"></path>
        <path d="M715.26 436.67L715.26 436.67" stroke="hsl(257.70000000000005, 37.9%, 29.6%)" stroke-width="1.5"></path>
        <path d="M715.26 436.67L802.39 330.81" stroke="hsl(257.70000000000005, 37.9%, 29.6%)" stroke-width="1.5"></path>
        <path d="M794.99 82.23L794.99 82.23" stroke="hsl(257.70000000000005, 37.9%, 29.6%)" stroke-width="1.5"></path>
        <path d="M794.99 82.23L957.31 37.59" stroke="hsl(257.70000000000005, 37.9%, 29.6%)" stroke-width="1.5"></path>
        <path d="M794.99 82.23L912.15 -48.48" stroke="hsl(257.70000000000005, 37.9%, 29.6%)" stroke-width="1.5"></path>
        <path d="M794.99 82.23L960.51 156.32" stroke="hsl(257.70000000000005, 37.9%, 29.6%)" stroke-width="1.5"></path>
        <path d="M794.99 82.23L705 293.74" stroke="hsl(257.70000000000005, 37.9%, 29.6%)" stroke-width="1.5"></path>
        <path d="M802.39 330.81L802.39 330.81" stroke="hsl(257.70000000000005, 37.9%, 29.6%)" stroke-width="1.5"></path>
        <path d="M818.4 538.35L818.4 538.35" stroke="hsl(257.70000000000005, 37.9%, 29.6%)" stroke-width="1.5"></path>
        <path d="M818.4 538.35L960.22 534.47" stroke="hsl(257.70000000000005, 37.9%, 29.6%)" stroke-width="1.5"></path>
        <path d="M818.4 538.35L715.26 436.67" stroke="hsl(257.70000000000005, 37.9%, 29.6%)" stroke-width="1.5"></path>
        <path d="M818.4 538.35L961.44 425.79" stroke="hsl(257.70000000000005, 37.9%, 29.6%)" stroke-width="1.5"></path>
        <path d="M818.4 538.35L802.39 330.81" stroke="hsl(257.70000000000005, 37.9%, 29.6%)" stroke-width="1.5"></path>
        <path d="M818.4 538.35L1035.71 584.47" stroke="hsl(257.70000000000005, 37.9%, 29.6%)" stroke-width="1.5"></path>
        <path d="M912.15 -48.48L912.15 -48.48" stroke="hsl(257.70000000000005, 37.9%, 29.6%)" stroke-width="1.5"></path>
        <path d="M912.15 -48.48L957.31 37.59" stroke="hsl(257.70000000000005, 37.9%, 29.6%)" stroke-width="1.5"></path>
        <path d="M912.15 -48.48L1050.35 -72.97" stroke="hsl(257.70000000000005, 37.9%, 29.6%)" stroke-width="1.5"></path>
        <path d="M912.15 -48.48L1070.15 49.88" stroke="hsl(257.70000000000005, 37.9%, 29.6%)" stroke-width="1.5"></path>
        <path d="M912.15 -48.48L960.51 156.32" stroke="hsl(257.70000000000005, 37.9%, 29.6%)" stroke-width="1.5"></path>
        <path d="M912.15 -48.48L1048.25 185.09" stroke="hsl(257.70000000000005, 37.9%, 29.6%)" stroke-width="1.5"></path>
        <path d="M957.31 37.59L957.31 37.59" stroke="hsl(257.70000000000005, 37.9%, 29.6%)" stroke-width="1.5"></path>
        <path d="M957.31 37.59L1070.15 49.88" stroke="hsl(257.70000000000005, 37.9%, 29.6%)" stroke-width="1.5"></path>
        <path d="M957.31 37.59L1050.35 -72.97" stroke="hsl(257.70000000000005, 37.9%, 29.6%)" stroke-width="1.5"></path>
        <path d="M957.31 37.59L1048.25 185.09" stroke="hsl(257.70000000000005, 37.9%, 29.6%)" stroke-width="1.5"></path>
        <path d="M942.29 315.33L942.29 315.33" stroke="hsl(257.70000000000005, 37.9%, 29.6%)" stroke-width="1.5"></path>
        <path d="M942.29 315.33L961.44 425.79" stroke="hsl(257.70000000000005, 37.9%, 29.6%)" stroke-width="1.5"></path>
        <path d="M942.29 315.33L802.39 330.81" stroke="hsl(257.70000000000005, 37.9%, 29.6%)" stroke-width="1.5"></path>
        <path d="M961.44 425.79L961.44 425.79" stroke="hsl(257.70000000000005, 37.9%, 29.6%)" stroke-width="1.5"></path>
        <path d="M961.44 425.79L960.22 534.47" stroke="hsl(257.70000000000005, 37.9%, 29.6%)" stroke-width="1.5"></path>
        <path d="M960.22 534.47L960.22 534.47" stroke="hsl(257.70000000000005, 37.9%, 29.6%)" stroke-width="1.5"></path>
        <path d="M960.22 534.47L1035.71 584.47" stroke="hsl(257.70000000000005, 37.9%, 29.6%)" stroke-width="1.5"></path>
        <path d="M960.22 534.47L1085.47 461.22" stroke="hsl(257.70000000000005, 37.9%, 29.6%)" stroke-width="1.5"></path>
        <path d="M960.22 534.47L942.29 315.33" stroke="hsl(257.70000000000005, 37.9%, 29.6%)" stroke-width="1.5"></path>
        <path d="M1050.35 -72.97L1050.35 -72.97" stroke="hsl(257.70000000000005, 37.9%, 29.6%)" stroke-width="1.5"></path>
        <path d="M1050.35 -72.97L1070.15 49.88" stroke="hsl(257.70000000000005, 37.9%, 29.6%)" stroke-width="1.5"></path>
        <path d="M1070.15 49.88L1070.15 49.88" stroke="hsl(257.70000000000005, 37.9%, 29.6%)" stroke-width="1.5"></path>
        <path d="M1048.25 185.09L1048.25 185.09" stroke="hsl(257.70000000000005, 37.9%, 29.6%)" stroke-width="1.5"></path>
        <path d="M1048.25 185.09L1070.15 49.88" stroke="hsl(257.70000000000005, 37.9%, 29.6%)" stroke-width="1.5"></path>
        <path d="M1085.47 461.22L1085.47 461.22" stroke="hsl(257.70000000000005, 37.9%, 29.6%)" stroke-width="1.5"></path>
        <path d="M1085.47 461.22L961.44 425.79" stroke="hsl(257.70000000000005, 37.9%, 29.6%)" stroke-width="1.5"></path>
        <path d="M1085.47 461.22L1035.71 584.47" stroke="hsl(257.70000000000005, 37.9%, 29.6%)" stroke-width="1.5"></path>
        <path d="M1035.71 584.47L1035.71 584.47" stroke="hsl(257.70000000000005, 37.9%, 29.6%)" stroke-width="1.5"></path>
        <circle r="25" cx="87.49" cy="421.99" fill="url(#SvgjsRadialGradient1023)"></circle>
        <circle r="25" cx="182.49" cy="439.42" fill="url(#SvgjsRadialGradient1023)"></circle>
        <circle r="25" cx="158.51" cy="555.51" fill="url(#SvgjsRadialGradient1023)"></circle>
        <circle r="25" cx="338.19" cy="541.48" fill="url(#SvgjsRadialGradient1023)"></circle>
        <circle r="25" cx="565.61" cy="448.19" fill="url(#SvgjsRadialGradient1023)"></circle>
        <circle r="25" cx="699.9" cy="194.12" fill="url(#SvgjsRadialGradient1023)"></circle>
        <circle r="25" cx="705" cy="293.74" fill="url(#SvgjsRadialGradient1023)"></circle>
        <circle r="25" cx="818.89" cy="208.52" fill="url(#SvgjsRadialGradient1023)"></circle>
        <circle r="25" cx="960.51" cy="156.32" fill="url(#SvgjsRadialGradient1023)"></circle>
        <circle r="5" cx="-65.33" cy="451.5" fill="#9892a8"></circle>
        <circle r="5" cx="-63.33" cy="543.59" fill="#9892a8"></circle>
        <circle r="5" cx="49.52" cy="581.45" fill="#9892a8"></circle>
        <circle r="5" cx="313.1" cy="456.07" fill="#9892a8"></circle>
        <circle r="5" cx="416.31" cy="457.55" fill="#9892a8"></circle>
        <circle r="5" cx="452.53" cy="539.32" fill="#9892a8"></circle>
        <circle r="5" cx="581.52" cy="324.46" fill="#9892a8"></circle>
        <circle r="5" cx="542.3" cy="547.72" fill="#9892a8"></circle>
        <circle r="5" cx="715.26" cy="436.67" fill="#9892a8"></circle>
        <circle r="5" cx="794.99" cy="82.23" fill="#9892a8"></circle>
        <circle r="5" cx="802.39" cy="330.81" fill="#9892a8"></circle>
        <circle r="5" cx="818.4" cy="538.35" fill="#9892a8"></circle>
        <circle r="5" cx="912.15" cy="-48.48" fill="#9892a8"></circle>
        <circle r="5" cx="957.31" cy="37.59" fill="#9892a8"></circle>
        <circle r="5" cx="942.29" cy="315.33" fill="#9892a8"></circle>
        <circle r="5" cx="961.44" cy="425.79" fill="#9892a8"></circle>
        <circle r="5" cx="960.22" cy="534.47" fill="#9892a8"></circle>
        <circle r="5" cx="1050.35" cy="-72.97" fill="#9892a8"></circle>
        <circle r="5" cx="1070.15" cy="49.88" fill="#9892a8"></circle>
        <circle r="5" cx="1048.25" cy="185.09" fill="#9892a8"></circle>
        <circle r="5" cx="1085.47" cy="461.22" fill="#9892a8"></circle>
        <circle r="5" cx="1035.71" cy="584.47" fill="#9892a8"></circle>
    </g>
    <defs>
        <mask id="SvgjsMask1022">
            <rect width="1000" height="500" fill="#ffffff"></rect>
        </mask>
        <radialGradient id="SvgjsRadialGradient1023">
            <stop stop-color="#ffffff" offset="0.1"></stop>
            <stop stop-color="rgba(49, 36, 80, 1)" offset="0.2"></stop>
            <stop stop-color="rgba(49, 36, 80, 0)" offset="1"></stop>
        </radialGradient>
    </defs>
</svg>